HIERARCHY
ROOT root
{
	OFFSET 0.000000 0.000000 0.000000
	CHANNELS 6 Xposition Yposition Zposition Zrotation Yrotation Xrotation
	JOINT lhip
	{
		OFFSET 0.058581 -0.082280 -0.017664
		CHANNELS 3 Zrotation Yrotation Xrotation
		JOINT lknee
		{
			OFFSET 0.043451 -0.386469 0.008037
			CHANNELS 3 Zrotation Yrotation Xrotation
			JOINT lankle
			{
				OFFSET -0.014790 -0.426874 -0.037428
				CHANNELS 3 Zrotation Yrotation Xrotation
				JOINT ltoe
				{
					OFFSET 0.041054 -0.060286 0.122042
					CHANNELS 3 Zrotation Yrotation Xrotation
					End Site
					{
						OFFSET 0.000000 0.000000 0.000000
					}
				}
			}
		}
	}
	JOINT rhip
	{
		OFFSET -0.060310 -0.090513 -0.013543
		CHANNELS 3 Zrotation Yrotation Xrotation
		JOINT rknee
		{
			OFFSET -0.043257 -0.383688 -0.004843
			CHANNELS 3 Zrotation Yrotation Xrotation
			JOINT rankle
			{
				OFFSET 0.019056 -0.420046 -0.034562
				CHANNELS 3 Zrotation Yrotation Xrotation
				JOINT rtoe
				{
					OFFSET -0.034840 -0.062106 0.130323
					CHANNELS 3 Zrotation Yrotation Xrotation
					End Site
					{
						OFFSET 0.000000 0.000000 0.000000
					}
				}
			}
		}
	}
	JOINT lowerback
	{
		OFFSET 0.004439 0.124404 -0.038385
		CHANNELS 3 Zrotation Yrotation Xrotation
		JOINT upperback
		{
			OFFSET 0.004488 0.137956 0.026820
			CHANNELS 3 Zrotation Yrotation Xrotation
			JOINT chest
			{
				OFFSET -0.002265 0.056032 0.002855
				CHANNELS 3 Zrotation Yrotation Xrotation
				JOINT lowerneck
				{
					OFFSET -0.013390 0.211636 -0.033468
					CHANNELS 3 Zrotation Yrotation Xrotation
					JOINT upperneck
					{
						OFFSET 0.010113 0.088937 0.050410
						CHANNELS 3 Zrotation Yrotation Xrotation
						End Site
						{
							OFFSET 0.000000 0.000000 0.000000
						}
					}
				}
				JOINT lclavicle
				{
					OFFSET 0.071702 0.114000 -0.018898
					CHANNELS 3 Zrotation Yrotation Xrotation
					JOINT lshoulder
					{
						OFFSET 0.122921 0.045205 -0.019046
						CHANNELS 3 Zrotation Yrotation Xrotation
						JOINT lelbow
						{
							OFFSET 0.255332 -0.015649 -0.022946
							CHANNELS 3 Zrotation Yrotation Xrotation
							JOINT lwrist
							{
								OFFSET 0.265709 0.012698 -0.007375
								CHANNELS 3 Zrotation Yrotation Xrotation
								End Site
								{
									OFFSET 0.000000 0.000000 0.000000
								}
							}
						}
					}
				}
				JOINT rclavicle
				{
					OFFSET -0.082954 0.112472 -0.023707
					CHANNELS 3 Zrotation Yrotation Xrotation
					JOINT rshoulder
					{
						OFFSET -0.113228 0.046853 -0.008472
						CHANNELS 3 Zrotation Yrotation Xrotation
						JOINT relbow
						{
							OFFSET -0.260127 -0.014369 -0.031269
							CHANNELS 3 Zrotation Yrotation Xrotation
							JOINT rwrist
							{
								OFFSET -0.269108 0.006794 -0.006027
								CHANNELS 3 Zrotation Yrotation Xrotation
								End Site
								{
									OFFSET 0.000000 0.000000 0.000000
								}
							}
						}
					}
				}
			}
		}
	}
}
MOTION
Frames: 13
Frame Time: 0.033333
0.111848 -0.033589 0.990821 -170.371395 -3.991506 89.518435 10.328612 4.267948 -5.180715 -7.239869 5.672682 19.706452 2.128072 9.552980 -4.165011 0.000000 -0.000000 0.000000 -7.334799 -7.693698 2.371061 5.683371 -9.441896 3.865835 -2.430867 -5.200432 -9.653973 0.000000 -0.000000 0.000000 3.501281 0.977745 0.745206 0.115036 -1.781364 8.929928 -1.518823 0.826067 -3.657059 -3.181639 3.259393 -3.713435 -2.661087 -3.263813 13.204537 -35.181869 0.243562 3.713546 -51.852550 -7.397310 12.552988 7.324478 -28.903152 0.253932 1.209092 -12.291282 -5.375529 33.838270 4.812049 6.291801 46.763327 6.935091 6.253355 -16.280135 14.567534 -21.659121 4.753476 9.515898 -16.458426 
0.111199 -0.031206 0.990998 -170.637554 -3.969899 89.682888 10.343084 4.236002 -5.318611 -6.592682 4.965267 16.347915 1.225153 10.191287 -6.261385 0.000000 -0.000000 0.000000 -7.221851 -7.605364 2.443702 5.509701 -8.858337 3.679871 -1.487582 -5.647028 -9.916238 0.000000 -0.000000 0.000000 3.624609 1.215958 0.580119 0.067836 -2.040934 8.713475 -1.421580 0.745738 -3.428468 -3.363822 3.665745 -4.202916 -2.821114 -2.644726 13.086359 -35.121389 0.277190 3.503330 -52.221914 -7.005983 12.567020 7.841916 -28.967177 -0.265426 1.118704 -12.241635 -5.473560 33.443053 4.974593 6.285068 47.020247 6.819440 6.402997 -16.331427 14.706792 -21.354334 4.778732 9.577954 -16.597662 
0.109826 -0.029072 0.991061 -170.994380 -3.924583 89.913859 10.134380 4.296622 -5.116086 -5.446559 4.466184 11.608464 0.050123 11.055447 -8.126783 0.000000 -0.000000 0.000000 -7.074021 -7.494154 2.441563 5.245656 -8.573412 3.502615 -0.753606 -5.845426 -10.073027 0.000000 -0.000000 0.000000 3.811685 1.207825 0.348704 -0.051073 -2.058078 8.551544 -1.435588 0.795493 -3.228843 -3.615248 3.764223 -4.349361 -2.828455 -2.545958 12.691783 -34.792324 0.239873 3.382314 -52.754555 -6.683785 12.836376 8.273917 -28.863983 -0.281588 0.399079 -12.199644 -5.520906 33.052368 5.011505 6.433347 47.432261 6.817110 6.538225 -16.409029 14.920378 -21.240135 4.866480 9.429310 -17.339653 
0.106163 -0.025883 0.990267 -171.748614 -3.594720 90.526301 10.063724 4.499693 -4.830018 -3.901450 3.329415 4.042378 -1.684118 11.277021 -9.788902 0.000000 -0.000000 0.000000 -6.933862 -7.203418 2.065088 5.287168 -8.068516 3.296218 0.184062 -5.713015 -10.722509 0.000000 -0.000000 0.000000 4.345822 1.041600 -0.180004 -0.185254 -1.972303 8.577512 -1.584485 0.861354 -3.304067 -4.037926 3.474326 -4.815926 -2.944770 -2.445855 12.454215 -34.609281 0.077530 3.186167 -53.074084 -6.076823 13.416061 8.351052 -27.988966 -0.339965 -0.085317 -12.292408 -5.509055 32.884092 5.281338 6.524238 47.542981 6.961681 6.757521 -16.327276 14.772094 -21.467786 4.882133 9.518509 -18.200536 
0.104530 -0.024523 0.989877 -171.905747 -3.447714 90.670749 10.044990 4.500826 -4.899010 -3.676462 2.442573 2.387901 -1.801346 11.053523 -9.739967 0.000000 -0.000000 0.000000 -6.921397 -7.186236 2.018171 5.339171 -7.911620 3.346977 0.387071 -5.750335 -10.882955 0.000000 -0.000000 0.000000 4.411337 1.062665 -0.454256 -0.144081 -2.035615 8.733637 -1.557990 0.819402 -3.280168 -4.110501 3.431426 -4.843934 -2.971561 -2.316794 12.345601 -34.630488 -0.076101 3.179013 -53.152838 -5.914944 13.669636 8.440276 -27.710451 -0.354047 -0.241075 -12.103171 -5.339527 32.873316 5.419284 6.462847 47.494697 6.892794 6.868904 -16.369707 14.856076 -21.622024 4.967591 9.518417 -18.353693 
0.100515 -0.021892 0.988919 -172.303173 -3.084032 90.849453 10.169495 4.588314 -5.101882 -3.134530 1.041932 -0.175168 -1.964943 10.495947 -9.584811 0.000000 -0.000000 0.000000 -6.891294 -7.058980 2.102399 5.441445 -7.763736 3.324508 0.728786 -5.593271 -11.163564 0.000000 -0.000000 0.000000 4.526866 0.895048 -0.357599 -0.110548 -2.141216 8.365132 -1.442054 0.841168 -3.271704 -4.129752 3.512304 -5.109807 -2.971581 -1.778655 12.513352 -34.714882 -0.047579 3.105397 -53.321576 -5.555391 13.814527 8.411917 -26.873956 -0.004452 -0.377359 -12.212149 -5.247449 32.852977 5.522566 6.555847 47.384836 7.148383 7.019932 -16.398651 14.759394 -21.273923 5.086048 9.696130 -18.321844 
0.095337 -0.018430 0.987979 -172.668282 -2.680859 90.991254 10.257391 4.647303 -5.536816 -3.105156 0.142078 -1.431026 -1.888434 9.441117 -9.300262 0.000000 -0.000000 0.000000 -6.900829 -7.067982 2.232866 5.554669 -7.486528 3.325371 0.881003 -5.552141 -11.375884 0.000000 -0.000000 0.000000 4.545525 0.835368 -0.782457 -0.023029 -2.280264 8.714031 -1.363986 0.804759 -3.375646 -3.804613 4.070799 -5.061239 -2.891899 -1.639539 12.425964 -34.846062 -0.153366 3.084401 -53.560838 -5.435552 13.752387 8.640953 -25.711392 -0.193901 -0.538752 -12.067000 -4.563598 33.015134 5.670271 6.562471 47.119163 7.358646 7.030027 -16.474989 14.690488 -21.093439 5.340470 9.639716 -17.926210 
0.089192 -0.015394 0.987368 -173.377812 -2.345448 91.053379 10.238489 4.633276 -5.771204 -3.245714 -0.353554 -1.341702 -2.061889 9.187451 -9.061849 0.000000 -0.000000 0.000000 -7.051631 -6.962956 2.319112 5.583809 -7.288893 3.346813 1.080409 -5.368883 -11.426212 0.000000 -0.000000 0.000000 4.545065 0.899475 -0.600465 -0.008557 -2.309106 8.484432 -1.329751 0.835796 -3.343908 -3.633573 4.153438 -5.324578 -2.821308 -1.288672 12.835801 -34.930690 -0.127685 2.958503 -53.673703 -5.363365 13.779381 8.660912 -24.667784 0.122996 -0.360969 -11.891642 -4.379940 33.156342 5.670491 6.504231 47.030638 7.830762 7.039504 -16.601727 14.577183 -20.943814 5.386627 9.693460 -17.629580 
0.081920 -0.011424 0.986412 -174.011370 -1.929795 91.026941 10.217007 4.666407 -5.901303 -3.361669 -0.252850 -0.439680 -1.803332 9.125931 -8.852962 0.000000 -0.000000 0.000000 -7.156214 -6.939891 2.643620 5.561263 -7.002750 3.195273 1.187624 -5.249904 -11.411516 0.000000 -0.000000 0.000000 4.515388 0.957296 -0.638858 0.032211 -2.476363 8.585144 -1.303230 0.832425 -3.365346 -3.582275 4.406891 -5.336623 -2.614613 -0.958201 13.093146 -34.921545 -0.196838 2.977471 -53.795391 -5.209783 13.558473 8.701038 -23.801739 -0.016462 -0.327183 -11.728527 -4.292456 33.179983 5.823119 6.577182 47.045972 8.228785 6.893070 -16.746318 14.922497 -21.037379 5.284222 9.960908 -17.298516 
0.073673 -0.007043 0.985578 -174.960716 -1.422799 91.085730 10.338120 4.718166 -5.880351 -3.385392 -0.096338 0.553130 -1.457980 9.173321 -8.796258 0.000000 -0.000000 0.000000 -7.233731 -6.894378 2.634117 5.489942 -6.560300 3.633321 1.228634 -5.004460 -11.112576 0.000000 -0.000000 0.000000 4.454496 1.104128 -0.611745 0.120976 -2.429326 8.444000 -1.244587 0.883053 -3.368135 -3.461030 4.506222 -5.080502 -2.474186 -0.582042 13.185078 -34.851112 -0.182238 2.943517 -53.957459 -4.929705 13.736458 8.626426 -23.114703 -0.167541 0.015574 -11.558222 -4.523817 33.119794 5.811797 6.467161 47.149273 8.429305 6.917911 -16.588467 14.913879 -21.386380 5.443644 9.590666 -17.877005 
0.064325 -0.002469 0.984905 -176.030433 -1.101791 91.327599 10.294512 4.921124 -5.976317 -3.434856 0.550776 1.225459 -0.970356 9.686444 -8.574411 0.000000 -0.000000 0.000000 -7.408981 -6.575560 2.232656 5.075323 -6.081057 4.092298 1.485065 -4.992097 -11.023340 0.000000 -0.000000 0.000000 4.165821 1.336420 -0.940990 0.226143 -2.286811 8.659494 -1.253345 0.927688 -3.553392 -3.272548 4.733617 -4.909592 -2.455298 -0.469272 13.441113 -34.902619 -0.064539 2.774536 -53.653570 -4.752195 13.993062 8.443235 -22.655414 0.032969 -0.803701 -11.709727 -3.919989 33.307900 5.727500 6.428671 47.014071 8.467567 7.007151 -16.580866 15.508318 -21.744765 5.609579 9.740754 -17.800314 
0.053794 0.001836 0.984894 -177.219917 -1.045547 91.431173 9.870931 5.018049 -5.920300 -3.702769 1.025322 1.976769 -0.286897 10.350417 -8.421828 0.000000 -0.000000 0.000000 -7.884734 -6.119345 1.764958 4.502374 -5.777453 4.785488 2.193792 -4.963467 -11.233775 0.000000 -0.000000 0.000000 3.623496 1.517333 -0.746608 0.165561 -2.016292 8.461117 -1.193292 0.963823 -3.583564 -3.151863 5.150250 -5.051628 -2.423455 -0.084232 14.027509 -34.554796 0.145579 2.603329 -53.627118 -4.592831 14.217528 8.124217 -22.570060 0.523529 -1.147711 -11.570694 -3.722279 33.355880 5.464389 6.284301 47.148059 8.653521 7.283007 -16.586407 16.442659 -21.828327 5.540676 9.776999 -17.693921 
0.042554 0.005970 0.985633 -178.320399 -0.849244 91.534542 9.339245 5.191068 -5.960738 -3.628445 1.733232 2.739207 0.292162 10.743025 -8.392592 0.000000 -0.000000 0.000000 -8.278827 -6.183992 0.942947 3.952019 -5.334682 6.021316 2.537870 -4.759119 -10.937680 0.000000 -0.000000 0.000000 3.298721 1.803900 -0.456159 0.154003 -1.887547 8.244049 -1.253108 1.086019 -3.731292 -3.119490 5.292160 -4.809957 -2.339148 0.270529 14.293492 -34.178643 0.258977 2.291364 -53.474250 -4.472973 14.701849 7.437021 -22.335033 1.159822 -1.482271 -11.953594 -3.461798 33.332087 5.160928 6.116624 47.377044 8.541785 7.552562 -16.552982 17.201935 -22.077362 5.337521 10.013864 -17.683867 
